<svg width="20" height="20" viewBox="0 0 20 20" fill="none" xmlns="http://www.w3.org/2000/svg">
<path fill-rule="evenodd" clip-rule="evenodd" d="M12.3776 4C12.967 4 13.5897 4.19483 14.16 4.4099L14.5775 4.57176C15.5757 4.96741 16.1366 5.7977 16.5715 6.70966C17.2774 8.18963 17.7677 10.1627 17.9373 11.6629C18.0181 12.3748 18.0379 13.0911 17.8929 13.573C17.7368 14.0878 17.2061 14.452 16.6903 14.7382L16.4352 14.8754L16.1707 15.0147C16.0344 15.0867 15.8942 15.1579 15.7547 15.2276L15.3412 15.4299L14.7732 15.6974L14.3161 15.9102C14.2227 15.9578 14.1202 15.9872 14.0146 15.9967C13.9089 16.0061 13.8024 15.9954 13.7012 15.9651C13.6001 15.9349 13.5064 15.8857 13.4257 15.8205C13.345 15.7554 13.279 15.6755 13.2315 15.5858C13.1841 15.496 13.1562 15.3981 13.1495 15.298C13.1428 15.1978 13.1574 15.0974 13.1925 15.0027C13.2276 14.908 13.2825 14.8209 13.3538 14.7467C13.4252 14.6724 13.5116 14.6125 13.6079 14.5704L14.2337 14.2781L13.7742 13.8218C12.6731 14.2489 11.3763 14.4909 9.99861 14.4909C8.62098 14.4909 7.32414 14.2496 6.22298 13.8218L5.76351 14.2774L6.39172 14.5696C6.48483 14.6136 6.56787 14.6745 6.6361 14.7489C6.70432 14.8232 6.7564 14.9095 6.78936 15.0029C6.82231 15.0963 6.8355 15.1949 6.82817 15.2931C6.82084 15.3913 6.79313 15.4872 6.74663 15.5753C6.70012 15.6633 6.63574 15.7419 6.55714 15.8064C6.47855 15.8709 6.38729 15.9202 6.28856 15.9514C6.08919 16.0143 5.87154 15.9998 5.68349 15.911L5.25254 15.7086C4.93407 15.5588 4.61481 15.4104 4.29952 15.2538L3.56436 14.8754L3.31006 14.7382C2.79434 14.452 2.26277 14.0878 2.1075 13.573C1.96173 13.0911 1.98233 12.3755 2.06234 11.6621C2.23187 10.1627 2.72225 8.18963 3.4281 6.70966C3.86301 5.7977 4.42389 4.96741 5.42207 4.57176C6.08435 4.30948 6.88685 4 7.62201 4C8.09971 4 8.47521 4.41589 8.40629 4.85951C8.93347 4.78572 9.46569 4.74891 9.99861 4.74935C10.546 4.74935 11.0808 4.78682 11.5941 4.86026C11.5788 4.75384 11.5876 4.64557 11.6199 4.54261C11.6522 4.43966 11.7073 4.34436 11.7814 4.26303C11.8555 4.1817 11.9471 4.1162 12.05 4.07086C12.1529 4.02551 12.2649 4.00136 12.3784 4H12.3776ZM7.42396 8.87079C7.05628 8.87079 6.70365 9.00895 6.44366 9.25488C6.18367 9.50081 6.03761 9.83436 6.03761 10.1822C6.03761 10.53 6.18367 10.8635 6.44366 11.1094C6.70365 11.3554 7.05628 11.4935 7.42396 11.4935C7.79164 11.4935 8.14427 11.3554 8.40426 11.1094C8.66425 10.8635 8.81031 10.53 8.81031 10.1822C8.81031 9.83436 8.66425 9.50081 8.40426 9.25488C8.14427 9.00895 7.79164 8.87079 7.42396 8.87079ZM12.5733 8.87079C12.2056 8.87079 11.853 9.00895 11.593 9.25488C11.333 9.50081 11.1869 9.83436 11.1869 10.1822C11.1869 10.53 11.333 10.8635 11.593 11.1094C11.853 11.3554 12.2056 11.4935 12.5733 11.4935C12.941 11.4935 13.2936 11.3554 13.5536 11.1094C13.8136 10.8635 13.9596 10.53 13.9596 10.1822C13.9596 9.83436 13.8136 9.50081 13.5536 9.25488C13.2936 9.00895 12.941 8.87079 12.5733 8.87079Z" fill="#787E87"/>
</svg>
