<svg width="20" height="20" viewBox="0 0 20 20" fill="none" xmlns="http://www.w3.org/2000/svg">
<path d="M9.99999 2C5.6 2 2 5.60643 2 10.0482C2 14.0643 4.928 17.3976 8.75199 18V12.3775H6.71999V10.0482H8.75199V8.27309C8.75199 6.25703 9.94399 5.14859 11.776 5.14859C12.648 5.14859 13.56 5.30121 13.56 5.30121V7.28514H12.552C11.56 7.28514 11.248 7.90362 11.248 8.53815V10.0482H13.472L13.112 12.3775H11.248V18C13.1331 17.7011 14.8497 16.7354 16.0879 15.2772C17.3261 13.819 18.0043 11.9644 18 10.0482C18 5.60643 14.4 2 9.99999 2Z" fill="#787E87"/>
</svg>
