<svg width="55" height="52" viewBox="0 0 55 52" fill="none" xmlns="http://www.w3.org/2000/svg">
<g filter="url(#filter0_d_12122_204915)">
<path d="M30.5737 32.5139L45.9904 48L51.4119 42.425L35.9953 26.9389L30.5737 32.5139ZM40.1321 19.0926C39.13 19.0926 38.0508 18.9636 37.2029 18.6022L7.93698 47.8709L2.51546 42.425L21.555 23.3255L17.0071 18.7313L15.1571 20.538L11.4314 16.8987V24.2804L9.63281 26.0872L0.588379 16.8987L2.38699 15.092H9.60711L6.0099 11.4528L15.1571 2.26437C15.8677 1.54673 16.7125 0.977246 17.6429 0.588647C18.5733 0.200049 19.571 0 20.5786 0C21.5863 0 22.584 0.200049 23.5144 0.588647C24.4448 0.977246 25.2896 1.54673 26.0001 2.26437L20.5786 7.83937L24.2015 11.4528L22.3772 13.2853L26.9765 17.8795L31.6529 13.0272C31.2932 12.1755 31.139 11.0914 31.139 10.1365C31.1288 8.94488 31.3541 7.7631 31.8018 6.65958C32.2495 5.55606 32.9107 4.55274 33.7471 3.70773C34.5836 2.86272 35.5786 2.19282 36.6746 1.73683C37.7706 1.28084 38.9458 1.04783 40.1321 1.05129C41.648 1.05129 42.9841 1.41263 44.1918 2.13532L37.3314 9.02663L41.1855 12.8982L48.0459 6.00684C48.7654 7.21992 49.1251 8.51043 49.1251 10.1365C49.1251 15.092 45.1425 19.0926 40.1321 19.0926Z" fill="url(#paint0_linear_12122_204915)"/>
</g>
<defs>
<filter id="filter0_d_12122_204915" x="0.588379" y="0" width="54.212" height="51.3882" filterUnits="userSpaceOnUse" color-interpolation-filters="sRGB">
<feFlood flood-opacity="0" result="BackgroundImageFix"/>
<feColorMatrix in="SourceAlpha" type="matrix" values="0 0 0 0 0 0 0 0 0 0 0 0 0 0 0 0 0 0 127 0" result="hardAlpha"/>
<feOffset dx="2.25882" dy="2.25882"/>
<feGaussianBlur stdDeviation="0.564706"/>
<feComposite in2="hardAlpha" operator="out"/>
<feColorMatrix type="matrix" values="0 0 0 0 0 0 0 0 0 0 0 0 0 0 0 0 0 0 0.32 0"/>
<feBlend mode="normal" in2="BackgroundImageFix" result="effect1_dropShadow_12122_204915"/>
<feBlend mode="normal" in="SourceGraphic" in2="effect1_dropShadow_12122_204915" result="shape"/>
</filter>
<linearGradient id="paint0_linear_12122_204915" x1="26.0001" y1="0" x2="26.0001" y2="48" gradientUnits="userSpaceOnUse">
<stop stop-color="#F9F9F9"/>
<stop offset="1" stop-color="#8E8EDA"/>
</linearGradient>
</defs>
</svg>
