<svg width="20" height="20" viewBox="0 0 20 20" fill="none" xmlns="http://www.w3.org/2000/svg">
<path d="M3.125 3.125C2 4.25 2 6.06071 2 9.67857V10.3214C2 13.9393 2 15.75 3.125 16.875C4.25 18 6.06071 18 9.67857 18H10.3214C13.9393 18 15.75 18 16.875 16.875C18 15.75 18 13.9393 18 10.3214V9.67857C18 6.06071 18 4.25 16.875 3.125C15.75 2 13.9393 2 10.3214 2H9.67857C6.06071 2 4.25 2 3.125 3.125ZM4.7 6.86786H6.525C6.58571 9.92143 7.93214 11.2143 9 11.4786V6.86786H10.7214V9.5C11.775 9.38571 12.8786 8.18571 13.2536 6.86786H14.975C14.8321 7.55 14.5536 8.2 14.15 8.77143C13.7464 9.34286 13.2321 9.825 12.6321 10.1857C13.3 10.5179 13.8893 10.9857 14.3607 11.5643C14.8357 12.1393 15.1786 12.8071 15.375 13.525H13.4786C13.3071 12.9036 12.95 12.3429 12.4607 11.9214C11.9679 11.4964 11.3643 11.2286 10.7214 11.1464V13.525H10.5143C6.86786 13.525 4.78571 11.025 4.7 6.86786Z" fill="#787E87"/>
</svg>
